<svg width="980" height="551" xmlns="http://www.w3.org/2000/svg" xmlns:xlink="http://www.w3.org/1999/xlink">
<path fill="#1982c4" d="M 509.92 118.73 Q 509.92 118.73 509.91 118.74 509.91 118.74 509.91 118.75 509.90 118.75 509.91 118.74 Z" data-drauu_index="0"></path><path fill="#1982c4" d="M 275.02 122.05 Q 275.02 122.05 277.21 122.25 279.40 122.45 281.73 124.18 284.06 125.90 286.65 128.21 289.25 130.51 292.19 134.13 295.13 137.75 297.78 141.86 300.42 145.98 302.20 149.58 303.98 153.18 305.34 157.03 306.70 160.88 307.86 164.66 309.02 168.44 310.17 171.70 311.31 174.97 312.76 178.01 314.21 181.06 316.11 184.13 318.01 187.21 320.17 190.17 322.32 193.12 324.55 195.68 326.77 198.25 328.85 200.38 330.92 202.51 332.86 204.18 334.80 205.85 336.87 207.45 338.93 209.05 341.26 210.90 343.60 212.76 345.99 214.73 348.38 216.69 350.78 218.71 353.18 220.72 355.46 222.69 357.74 224.67 359.60 226.31 361.46 227.95 362.93 229.19 364.41 230.43 365.56 231.40 366.70 232.37 367.61 233.19 368.53 234.02 369.33 234.78 370.13 235.54 370.88 236.29 371.63 237.03 372.32 237.83 373.02 238.62 373.66 239.41 374.31 240.20 374.97 241.08 375.63 241.96 376.26 242.84 376.90 243.73 378.00 244.96 379.09 246.19 379.93 246.79 380.78 247.39 382.32 247.85 383.86 248.30 385.34 248.50 386.82 248.69 388.78 248.80 390.74 248.92 393.14 250.32 395.54 251.72 395.54 251.73 395.53 251.73 395.53 251.74 395.53 251.74 393.70 252.40 391.88 253.06 390.21 252.90 388.55 252.74 387.53 252.71 386.51 252.68 384.58 252.40 382.66 252.11 381.32 251.72 379.98 251.33 378.76 250.68 377.54 250.04 376.24 248.85 374.94 247.65 374.30 246.86 373.66 246.07 373.04 245.21 372.42 244.35 371.82 243.54 371.21 242.73 370.01 241.30 368.81 239.87 368.09 239.15 367.37 238.43 366.61 237.71 365.85 236.98 364.98 236.20 364.11 235.42 362.98 234.46 361.84 233.49 360.33 232.22 358.81 230.95 356.97 229.32 355.13 227.70 352.86 225.74 350.60 223.78 348.22 221.78 345.84 219.78 343.48 217.84 341.11 215.89 338.80 214.05 336.48 212.21 334.33 210.55 332.19 208.88 330.12 207.09 328.05 205.30 325.90 203.08 323.75 200.87 321.42 198.17 319.09 195.48 316.85 192.39 314.60 189.31 312.60 186.04 310.60 182.77 309.07 179.53 307.54 176.29 306.37 172.95 305.20 169.62 304.06 165.91 302.93 162.21 301.66 158.58 300.39 154.94 298.72 151.54 297.05 148.13 294.54 144.20 292.02 140.26 289.30 136.88 286.58 133.49 284.12 131.30 281.67 129.11 279.47 127.47 277.28 125.84 276.14 123.95 275.01 122.07 275.01 122.06 Z" data-drauu_index="3"></path><path fill="#1982c4" d="M 780.86 126.13 Q 780.86 126.13 778.73 127.43 776.61 128.74 773.78 129.34 770.95 129.94 766.41 131.16 761.86 132.37 754.86 134.72 747.86 137.07 739.09 140.59 730.32 144.11 721.35 148.31 712.38 152.51 704.94 156.30 697.50 160.09 691.34 163.14 685.18 166.20 680.14 168.59 675.09 170.98 671.18 172.90 667.27 174.81 664.00 176.56 660.73 178.31 658.00 179.97 655.27 181.63 653.19 183.06 651.10 184.48 649.60 185.64 648.10 186.79 646.87 187.80 645.65 188.80 644.39 189.81 643.14 190.83 641.61 192.01 640.09 193.20 638.45 194.53 636.81 195.86 635.10 197.17 633.39 198.48 631.65 199.58 629.92 200.68 628.47 201.57 627.03 202.47 625.56 203.35 624.09 204.23 622.28 205.25 620.47 206.26 618.18 207.55 615.89 208.84 613.32 210.36 610.75 211.87 608.43 213.24 606.11 214.61 604.05 215.83 601.98 217.04 599.86 218.31 597.74 219.59 595.40 220.97 593.06 222.35 590.55 223.86 588.04 225.38 585.70 226.80 583.36 228.22 581.46 229.36 579.57 230.50 578.06 231.39 576.54 232.27 575.39 232.92 574.24 233.58 572.97 234.47 571.70 235.35 570.86 235.99 570.01 236.62 567.72 237.22 565.44 237.83 565.43 237.83 565.43 237.82 565.43 237.82 565.42 237.81 566.90 235.34 568.37 232.86 569.45 232.03 570.53 231.21 571.40 230.66 572.26 230.10 573.39 229.46 574.53 228.81 576.02 227.94 577.51 227.08 579.39 225.94 581.28 224.80 583.63 223.38 585.98 221.95 588.50 220.43 591.03 218.90 593.36 217.53 595.68 216.16 597.82 214.88 599.96 213.59 602.02 212.38 604.08 211.17 606.40 209.80 608.72 208.43 611.33 206.89 613.93 205.35 616.22 204.07 618.51 202.78 620.27 201.79 622.04 200.80 623.48 199.94 624.92 199.08 626.35 198.18 627.78 197.29 629.37 196.30 630.96 195.30 632.62 194.03 634.29 192.75 635.96 191.39 637.64 190.04 639.13 188.88 640.62 187.72 641.87 186.71 643.12 185.70 644.39 184.66 645.66 183.62 647.25 182.40 648.85 181.18 651.02 179.69 653.20 178.21 656.02 176.50 658.84 174.79 662.18 173.00 665.51 171.22 669.44 169.29 673.38 167.37 678.39 164.99 683.41 162.61 689.55 159.57 695.69 156.52 703.19 152.70 710.69 148.89 719.76 144.64 728.83 140.40 737.71 136.84 746.59 133.28 753.71 130.89 760.83 128.51 765.48 127.27 770.12 126.03 773.09 125.40 776.06 124.77 778.46 125.44 780.85 126.11 780.86 126.12 Z" data-drauu_index="4"></path><path fill="#1982c4" d="M 562.76 241.58 Q 562.76 241.58 562.75 241.59 562.75 241.59 562.74 241.60 562.74 241.60 562.75 241.59 Z" data-drauu_index="5"></path><path fill="#1982c4" d="M 354.56 381.85 Q 354.56 381.85 354.56 381.85 354.55 381.85 354.55 381.85 354.54 381.85 354.55 381.85 Z" data-drauu_index="6"></path><path fill="#1982c4" d="M 354.56 386.93 Q 354.56 386.93 355.56 389.40 356.55 391.87 356.55 395.40 356.55 398.93 356.55 403.08 356.55 407.23 356.64 411.31 356.72 415.38 357.08 418.34 357.44 421.29 358.26 423.04 359.09 424.79 360.71 425.97 362.34 427.15 364.91 428.12 367.49 429.09 371.54 429.93 375.60 430.77 381.43 431.73 387.26 432.69 394.08 433.40 400.90 434.11 408.34 434.41 415.78 434.71 423.17 434.89 430.56 435.07 437.41 435.50 444.27 435.92 450.45 436.59 456.63 437.26 461.76 437.93 466.90 438.59 471.16 439.09 475.42 439.59 479.33 439.84 483.23 440.10 487.15 440.20 491.08 440.31 495.55 440.36 500.03 440.40 504.93 440.06 509.84 439.72 515.11 438.61 520.38 437.49 526.25 435.77 532.13 434.05 538.05 432.01 543.98 429.97 549.25 427.99 554.52 426.00 558.69 424.39 562.87 422.78 565.95 421.45 569.03 420.11 571.56 418.62 574.08 417.13 576.56 414.66 579.03 412.20 581.78 408.23 584.52 404.26 587.12 399.64 589.72 395.02 591.86 390.30 593.99 385.57 595.91 381.10 597.83 376.64 600.63 370.15 603.43 363.66 605.81 357.99 608.20 352.31 610.27 347.03 612.34 341.74 613.98 337.00 615.62 332.26 616.73 328.60 617.84 324.93 618.59 322.16 619.34 319.39 619.86 316.84 620.37 314.28 620.69 311.60 621.00 308.92 621.13 306.33 621.26 303.74 621.32 301.52 621.38 299.29 621.40 297.47 621.43 295.66 621.12 294.11 620.81 292.56 619.74 290.72 618.66 288.88 616.58 286.38 614.49 283.89 611.47 281.07 608.45 278.24 604.67 275.22 600.90 272.21 596.53 269.13 592.17 266.05 586.72 262.80 581.28 259.55 574.69 256.46 568.09 253.36 560.55 250.90 553.00 248.44 545.22 246.66 537.44 244.89 529.66 243.67 521.89 242.45 513.83 241.46 505.76 240.47 498.16 239.59 490.57 238.71 483.45 238.05 476.34 237.39 469.73 237.12 463.13 236.84 457.37 236.72 451.61 236.60 446.84 236.55 442.07 236.50 438.28 236.61 434.50 236.73 431.59 237.21 428.69 237.69 426.34 238.73 423.99 239.77 421.65 241.50 419.32 243.24 416.76 245.66 414.20 248.08 411.16 251.51 408.12 254.95 404.55 259.49 400.98 264.03 396.70 270.04 392.41 276.04 387.68 282.92 382.94 289.79 378.43 296.41 373.92 303.03 370.02 309.09 366.11 315.15 363.11 320.16 360.10 325.17 357.83 330.04 355.55 334.91 354.06 340.65 352.57 346.38 351.81 353.00 351.05 359.61 350.72 367.08 350.39 374.55 350.48 381.58 350.57 388.61 351.44 393.85 352.31 399.09 354.29 403.18 356.28 407.27 359.79 410.71 363.31 414.15 367.66 417.72 372.02 421.28 372.02 421.29 372.02 421.29 372.01 421.30 372.01 421.30 366.26 419.15 360.51 417.00 356.61 413.03 352.71 409.05 350.54 404.42 348.38 399.78 347.47 394.22 346.57 388.66 346.49 381.52 346.40 374.37 346.74 366.76 347.08 359.15 347.89 352.26 348.70 345.37 350.31 339.30 351.92 333.22 354.30 328.17 356.67 323.12 359.71 318.05 362.75 312.99 366.69 306.88 370.62 300.78 375.13 294.15 379.65 287.52 384.40 280.62 389.16 273.72 393.50 267.64 397.84 261.55 401.48 256.92 405.13 252.29 408.29 248.73 411.46 245.17 414.21 242.59 416.95 240.01 419.67 238.06 422.39 236.10 425.20 234.93 428.02 233.75 431.20 233.24 434.37 232.73 438.24 232.61 442.11 232.50 446.90 232.55 451.69 232.60 457.50 232.72 463.30 232.84 470.00 233.13 476.70 233.41 483.87 234.07 491.03 234.74 498.64 235.62 506.25 236.50 514.38 237.50 522.51 238.49 530.42 239.74 538.33 240.99 546.29 242.81 554.25 244.64 562.02 247.19 569.79 249.74 576.56 252.93 583.33 256.12 588.90 259.45 594.47 262.79 598.93 265.93 603.39 269.08 607.29 272.20 611.19 275.32 614.38 278.33 617.57 281.34 619.86 284.14 622.16 286.93 623.44 289.35 624.72 291.76 625.07 293.73 625.43 295.70 625.40 297.55 625.38 299.39 625.32 301.67 625.26 303.95 625.11 306.67 624.97 309.39 624.63 312.23 624.29 315.08 623.75 317.76 623.20 320.43 622.43 323.26 621.67 326.09 620.54 329.83 619.40 333.57 617.73 338.39 616.07 343.20 613.98 348.53 611.89 353.86 609.49 359.55 607.10 365.24 604.30 371.73 601.50 378.22 599.57 382.72 597.64 387.22 595.42 392.10 593.20 396.99 590.50 401.76 587.80 406.54 584.82 410.79 581.84 415.05 578.99 417.80 576.13 420.56 573.38 422.17 570.62 423.78 567.46 425.15 564.30 426.52 560.12 428.13 555.93 429.74 550.60 431.75 545.28 433.76 539.26 435.82 533.25 437.88 527.23 439.65 521.20 441.41 515.66 442.56 510.12 443.71 505.05 444.06 499.99 444.40 495.48 444.36 490.97 444.31 486.97 444.20 482.97 444.09 478.96 443.82 474.96 443.56 470.67 443.06 466.39 442.55 461.29 441.90 456.19 441.24 450.11 440.58 444.02 439.91 437.24 439.49 430.46 439.07 423.04 438.89 415.62 438.70 408.05 438.40 400.48 438.09 393.55 437.36 386.62 436.64 380.69 435.66 374.77 434.68 370.40 433.75 366.03 432.81 362.96 431.55 359.88 430.30 357.72 428.45 355.56 426.60 354.52 424.21 353.48 421.82 353.10 418.64 352.72 415.47 352.64 411.35 352.55 407.23 352.55 403.08 352.55 398.93 352.55 395.40 352.55 391.87 353.55 389.40 354.54 386.93 354.55 386.93 Z" data-drauu_index="7"></path>
</svg>